<?xml version="1.0" encoding="UTF-8" standalone="no"?>
<!-- Created with Inkscape (http://www.inkscape.org/) -->

<svg
   xmlns:dc="http://purl.org/dc/elements/1.1/"
   xmlns:cc="http://creativecommons.org/ns#"
   xmlns:rdf="http://www.w3.org/1999/02/22-rdf-syntax-ns#"
   xmlns:svg="http://www.w3.org/2000/svg"
   xmlns="http://www.w3.org/2000/svg"
   xmlns:sodipodi="http://sodipodi.sourceforge.net/DTD/sodipodi-0.dtd"
   xmlns:inkscape="http://www.inkscape.org/namespaces/inkscape"
   width="100mm"
   height="100mm"
   viewBox="0 0 100 100"
   version="1.1"
   id="svg64"
   inkscape:version="0.92.5 (2060ec1f9f, 2020-04-08)"
   sodipodi:docname="favicon.svg"
   inkscape:export-filename="/home/david/aplicaciones/peliculas/favicon.png"
   inkscape:export-xdpi="65.024002"
   inkscape:export-ydpi="65.024002">
  <defs
     id="defs58" />
  <sodipodi:namedview
     id="base"
     pagecolor="#ffffff"
     bordercolor="#666666"
     borderopacity="1.0"
     inkscape:pageopacity="0.0"
     inkscape:pageshadow="2"
     inkscape:zoom="0.7"
     inkscape:cx="308.89571"
     inkscape:cy="209.86316"
     inkscape:document-units="mm"
     inkscape:current-layer="layer1"
     showgrid="false"
     inkscape:window-width="1440"
     inkscape:window-height="786"
     inkscape:window-x="0"
     inkscape:window-y="27"
     inkscape:window-maximized="1"
     fit-margin-top="0"
     fit-margin-left="0"
     fit-margin-right="0"
     fit-margin-bottom="0" />
  <metadata
     id="metadata61">
    <rdf:RDF>
      <cc:Work
         rdf:about="">
        <dc:format>image/svg+xml</dc:format>
        <dc:type
           rdf:resource="http://purl.org/dc/dcmitype/StillImage" />
        <dc:title></dc:title>
      </cc:Work>
    </rdf:RDF>
  </metadata>
  <g
     inkscape:label="Capa 1"
     inkscape:groupmode="layer"
     id="layer1"
     transform="translate(183.04762,-58.767853)">
    <path
       style="opacity:1;fill:#ec0000;fill-opacity:1;stroke:none;stroke-width:5.96499872;stroke-linecap:round;stroke-linejoin:miter;stroke-miterlimit:4;stroke-dasharray:none;stroke-dashoffset:0;stroke-opacity:1"
       d="m -179.96652,80.191943 c -1.8638,0 -3.36449,1.500136 -3.36449,3.363919 v 3.700995 c 0,1.863799 1.50069,3.363919 3.36449,3.363919 h 11.23873 c 1.86377,0 3.36449,-1.50012 3.36449,-3.363919 v -3.700995 c 0,-1.863783 -1.50072,-3.363919 -3.36449,-3.363919 z m 82.59966,0 c -1.863806,0 -3.36449,1.500136 -3.36449,3.363919 v 3.700995 c 0,1.863799 1.500684,3.363919 3.36449,3.363919 h 11.238726 c 1.863807,0 3.363921,-1.50012 3.363921,-3.363919 v -3.700995 c 0,-1.863783 -1.500114,-3.363919 -3.363921,-3.363919 z m -45.75283,10.787012 c -0.5758,-0.009 -1.04147,0.07585 -1.3734,0.267494 -4.24876,2.453023 -4.24876,32.589791 0,35.042811 4.24876,2.45303 30.34827,-12.61564 30.34827,-17.52169 0,-4.52276 -22.1804,-17.681903 -28.97487,-17.788615 z m -36.84683,12.574485 c -1.8638,0 -3.36449,1.50011 -3.36449,3.36392 v 3.70099 c 0,1.86381 1.50069,3.36392 3.36449,3.36392 h 11.23873 c 1.86377,0 3.36449,-1.50011 3.36449,-3.36392 v -3.70099 c 0,-1.86381 -1.50072,-3.36392 -3.36449,-3.36392 z m 82.59966,0 c -1.863806,0 -3.36449,1.50011 -3.36449,3.36392 v 3.70099 c 0,1.86381 1.500684,3.36392 3.36449,3.36392 h 11.238726 c 1.863807,0 3.363921,-1.50011 3.363921,-3.36392 v -3.70099 c 0,-1.86381 -1.500114,-3.36392 -3.363921,-3.36392 z m -82.59966,23.3615 c -1.8638,0 -3.36449,1.5001 -3.36449,3.36392 v 3.70099 c 0,1.86381 1.50069,3.36392 3.36449,3.36392 h 11.23873 c 1.86377,0 3.36449,-1.50011 3.36449,-3.36392 v -3.70099 c 0,-1.86382 -1.50072,-3.36392 -3.36449,-3.36392 z m 82.59966,0 c -1.863806,0 -3.36449,1.5001 -3.36449,3.36392 v 3.70099 c 0,1.86381 1.500684,3.36392 3.36449,3.36392 h 11.238726 c 1.863807,0 3.363921,-1.50011 3.363921,-3.36392 v -3.70099 c 0,-1.86382 -1.500114,-3.36392 -3.363921,-3.36392 z"
       id="path43"
       inkscape:connector-curvature="0" />
  </g>
</svg>
