<?xml version="1.0" encoding="UTF-8" standalone="no"?>
<!-- Created with Inkscape (http://www.inkscape.org/) -->

<svg
   xmlns:dc="http://purl.org/dc/elements/1.1/"
   xmlns:cc="http://creativecommons.org/ns#"
   xmlns:rdf="http://www.w3.org/1999/02/22-rdf-syntax-ns#"
   xmlns:svg="http://www.w3.org/2000/svg"
   xmlns="http://www.w3.org/2000/svg"
   xmlns:sodipodi="http://sodipodi.sourceforge.net/DTD/sodipodi-0.dtd"
   xmlns:inkscape="http://www.inkscape.org/namespaces/inkscape"
   width="114.52641mm"
   height="98.651855mm"
   viewBox="0 0 114.52642 98.651855"
   version="1.1"
   id="svg8"
   sodipodi:docname="logo.svg"
   inkscape:version="0.92.5 (2060ec1f9f, 2020-04-08)"
   inkscape:export-filename="/home/david/aplicaciones/peliculas/build/images/logo.png"
   inkscape:export-xdpi="225"
   inkscape:export-ydpi="225">
  <defs
     id="defs2" />
  <sodipodi:namedview
     id="base"
     pagecolor="#ffffff"
     bordercolor="#666666"
     borderopacity="1.0"
     inkscape:pageopacity="0.0"
     inkscape:pageshadow="2"
     inkscape:zoom="0.49497475"
     inkscape:cx="-224.21258"
     inkscape:cy="-141.52663"
     inkscape:document-units="mm"
     inkscape:current-layer="layer1"
     showgrid="false"
     inkscape:window-width="1440"
     inkscape:window-height="786"
     inkscape:window-x="0"
     inkscape:window-y="27"
     inkscape:window-maximized="1"
     fit-margin-top="0"
     fit-margin-left="0"
     fit-margin-right="0"
     fit-margin-bottom="0"
     inkscape:snap-global="false" />
  <metadata
     id="metadata5">
    <rdf:RDF>
      <cc:Work
         rdf:about="">
        <dc:format>image/svg+xml</dc:format>
        <dc:type
           rdf:resource="http://purl.org/dc/dcmitype/StillImage" />
        <dc:title></dc:title>
      </cc:Work>
    </rdf:RDF>
  </metadata>
  <g
     inkscape:label="Capa 1"
     inkscape:groupmode="layer"
     id="layer1"
     transform="translate(89.846598,-171.08455)">
    <path
       style="opacity:1;fill:#ec0000;fill-opacity:1;stroke:none;stroke-width:22.54487801;stroke-linecap:round;stroke-linejoin:miter;stroke-miterlimit:4;stroke-dasharray:none;stroke-dashoffset:0;stroke-opacity:1"
       d="M 40,0 C 17.839999,0 0,17.840025 0,40 v 292.85742 c 0,22.15998 17.839999,40 40,40 h 352.85575 c 22.16,0 40,-17.84002 40,-40 V 40 c 0,-22.159975 -17.84,-40 -40,-40 z m 15.755859,48.572266 h 38.486329 c 6.382392,0 11.521482,5.137043 11.521482,11.519531 v 12.673828 c 0,6.382488 -5.13909,11.519531 -11.521482,11.519531 H 55.755859 c -6.382499,0 -11.521484,-5.137043 -11.521484,-11.519531 V 60.091797 c 0,-6.382488 5.138985,-11.519531 11.521484,-11.519531 z m 282.857701,0 h 38.48633 c 6.3825,0 11.51953,5.137043 11.51953,11.519531 v 12.673828 c 0,6.382488 -5.13703,11.519531 -11.51953,11.519531 h -38.48633 c -6.3825,0 -11.52148,-5.137043 -11.52148,-11.519531 V 60.091797 c 0,-6.382488 5.13898,-11.519531 11.52148,-11.519531 z M 55.755859,128.57227 h 38.486329 c 6.382392,0 11.521482,5.13708 11.521482,11.51953 v 12.67382 c 0,6.38246 -5.13909,11.51954 -11.521482,11.51954 H 55.755859 c -6.382499,0 -11.521484,-5.13708 -11.521484,-11.51954 V 140.0918 c 0,-6.38245 5.138985,-11.51953 11.521484,-11.51953 z m 282.857701,0 h 38.48633 c 6.3825,0 11.51953,5.13708 11.51953,11.51953 v 12.67382 c 0,6.38246 -5.13703,11.51954 -11.51953,11.51954 h -38.48633 c -6.3825,0 -11.52148,-5.13708 -11.52148,-11.51954 V 140.0918 c 0,-6.38245 5.13898,-11.51953 11.52148,-11.51953 z m -282.857701,80 h 38.486329 c 6.382392,0 11.521482,5.13704 11.521482,11.51953 v 12.67382 c 0,6.38249 -5.13909,11.51954 -11.521482,11.51954 H 55.755859 c -6.382499,0 -11.521484,-5.13705 -11.521484,-11.51954 V 220.0918 c 0,-6.38249 5.138985,-11.51953 11.521484,-11.51953 z m 282.857701,0 h 38.48633 c 6.3825,0 11.51953,5.13704 11.51953,11.51953 v 12.67382 c 0,6.38249 -5.13703,11.51954 -11.51953,11.51954 h -38.48633 c -6.3825,0 -11.52148,-5.13705 -11.52148,-11.51954 V 220.0918 c 0,-6.38249 5.13898,-11.51953 11.52148,-11.51953 z m -282.857701,80 h 38.486329 c 6.382392,0 11.521482,5.13704 11.521482,11.51953 v 12.67382 c 0,6.38249 -5.13909,11.51954 -11.521482,11.51954 H 55.755859 c -6.382499,0 -11.521484,-5.13705 -11.521484,-11.51954 V 300.0918 c 0,-6.38249 5.138985,-11.51953 11.521484,-11.51953 z m 282.857701,0 h 38.48633 c 6.3825,0 11.51953,5.13704 11.51953,11.51953 v 12.67382 c 0,6.38249 -5.13703,11.51954 -11.51953,11.51954 h -38.48633 c -6.3825,0 -11.52148,-5.13705 -11.52148,-11.51954 V 300.0918 c 0,-6.38249 5.13898,-11.51953 11.52148,-11.51953 z"
       transform="matrix(0.26458333,0,0,0.26458333,-89.846598,171.08455)"
       id="rect16"
       inkscape:connector-curvature="0"
       sodipodi:nodetypes="sssssssssssssssssssssssssssssssssssssssssssssssssssssssssssssssssssssssssssssssss" />
    <path
       sodipodi:type="star"
       style="opacity:1;fill:#f2f2f2;fill-opacity:1;stroke:none;stroke-width:5.9649992;stroke-linecap:round;stroke-linejoin:miter;stroke-miterlimit:4;stroke-dasharray:none;stroke-dashoffset:0;stroke-opacity:1"
       id="path20"
       sodipodi:sides="3"
       sodipodi:cx="-33.788197"
       sodipodi:cy="220.41049"
       sodipodi:r1="18.33136"
       sodipodi:r2="9.1656799"
       sodipodi:arg1="0"
       sodipodi:arg2="1.0471976"
       inkscape:flatsided="true"
       inkscape:rounded="0.14"
       inkscape:randomized="0"
       d="m -15.456837,220.41049 c 0,4.44512 -23.647454,18.09798 -27.497039,15.87543 -3.849586,-2.22256 -3.849586,-29.52829 0,-31.75085 3.849585,-2.22256 27.497039,11.4303 27.497039,15.87542 z"
       inkscape:transform-center-x="-4.5828401"
       inkscape:transform-center-y="1.3043956e-05" />
  </g>
</svg>
